TITLE ""
FILE "Disc1Track63.mp3" MP3
  TRACK 01 AUDIO
    TITLE "Disc1Track63_01"
    INDEX 01 00:00:00
  TRACK 02 AUDIO
    TITLE "Disc1Track63_02"
    INDEX 01 00:01:12
  TRACK 03 AUDIO
    TITLE "Disc1Track63_03"
    INDEX 01 00:02:21
  TRACK 04 AUDIO
    TITLE "Disc1Track63_04"
    INDEX 01 00:03:44
  TRACK 05 AUDIO
    TITLE "Disc1Track63_05"
    INDEX 01 00:05:57
  TRACK 06 AUDIO
    TITLE "Disc1Track63_06"
    INDEX 01 00:06:17
  TRACK 07 AUDIO
    TITLE "Disc1Track63_07"
    INDEX 01 00:07:40
  TRACK 08 AUDIO
    TITLE "Disc1Track63_08"
    INDEX 01 00:09:45
  TRACK 09 AUDIO
    TITLE "Disc1Track63_09"
    INDEX 01 00:10:67
  TRACK 10 AUDIO
    TITLE "Disc1Track63_10"
    INDEX 01 00:13:54
  TRACK 11 AUDIO
    TITLE "Disc1Track63_11"
    INDEX 01 00:14:10
  TRACK 12 AUDIO
    TITLE "Disc1Track63_12"
    INDEX 01 00:15:27
  TRACK 13 AUDIO
    TITLE "Disc1Track63_13"
    INDEX 01 00:16:52
  TRACK 14 AUDIO
    TITLE "Disc1Track63_14"
    INDEX 01 00:17:71
  TRACK 15 AUDIO
    TITLE "Disc1Track63_15"
    INDEX 01 00:18:32
  TRACK 16 AUDIO
    TITLE "Disc1Track63_16"
    INDEX 01 00:19:64
  TRACK 17 AUDIO
    TITLE "Disc1Track63_17"
    INDEX 01 00:20:66
  TRACK 18 AUDIO
    TITLE "Disc1Track63_18"
    INDEX 01 00:22:24
  TRACK 19 AUDIO
    TITLE "Disc1Track63_19"
    INDEX 01 00:22:59
  TRACK 20 AUDIO
    TITLE "Disc1Track63_20"
    INDEX 01 00:24:13
  TRACK 21 AUDIO
    TITLE "Disc1Track63_21"
    INDEX 01 00:25:75
  TRACK 22 AUDIO
    TITLE "Disc1Track63_22"
    INDEX 01 00:27:29
  TRACK 23 AUDIO
    TITLE "Disc1Track63_23"
    INDEX 01 00:31:27
  TRACK 24 AUDIO
    TITLE "Disc1Track63_24"
    INDEX 01 00:31:60
  TRACK 25 AUDIO
    TITLE "Disc1Track63_25"
    INDEX 01 00:33:25
  TRACK 26 AUDIO
    TITLE "Disc1Track63_26"
    INDEX 01 00:34:50
  TRACK 27 AUDIO
    TITLE "Disc1Track63_27"
    INDEX 01 00:36:20
  TRACK 28 AUDIO
    TITLE "Disc1Track63_28"
    INDEX 01 00:36:53
  TRACK 29 AUDIO
    TITLE "Disc1Track63_29"
    INDEX 01 00:38:11
  TRACK 30 AUDIO
    TITLE "Disc1Track63_30"
    INDEX 01 00:39:32
  TRACK 31 AUDIO
    TITLE "Disc1Track63_31"
    INDEX 01 00:40:63
  TRACK 32 AUDIO
    TITLE "Disc1Track63_32"
    INDEX 01 00:45:46
  TRACK 33 AUDIO
    TITLE "Disc1Track63_33"
    INDEX 01 00:46:03
  TRACK 34 AUDIO
    TITLE "Disc1Track63_34"
    INDEX 01 00:47:47
  TRACK 35 AUDIO
    TITLE "Disc1Track63_35"
    INDEX 01 00:48:49
  TRACK 36 AUDIO
    TITLE "Disc1Track63_36"
    INDEX 01 00:50:18
  TRACK 37 AUDIO
    TITLE "Disc1Track63_37"
    INDEX 01 00:50:49
  TRACK 38 AUDIO
    TITLE "Disc1Track63_38"
    INDEX 01 00:52:21
  TRACK 39 AUDIO
    TITLE "Disc1Track63_39"
    INDEX 01 00:53:46
  TRACK 40 AUDIO
    TITLE "Disc1Track63_40"
    INDEX 01 00:55:17
  TRACK 41 AUDIO
    TITLE "Disc1Track63_41"
    INDEX 01 00:55:52
  TRACK 42 AUDIO
    TITLE "Disc1Track63_42"
    INDEX 01 00:57:12
  TRACK 43 AUDIO
    TITLE "Disc1Track63_43"
    INDEX 01 00:59:50
  TRACK 44 AUDIO
    TITLE "Disc1Track63_44"
    INDEX 01 01:01:10
  TRACK 45 AUDIO
    TITLE "Disc1Track63_45"
    INDEX 01 01:05:22
  TRACK 46 AUDIO
    TITLE "Disc1Track63_46"
    INDEX 01 01:05:53
  TRACK 47 AUDIO
    TITLE "Disc1Track63_47"
    INDEX 01 01:07:11
  TRACK 48 AUDIO
    TITLE "Disc1Track63_48"
    INDEX 01 01:11:32
  TRACK 49 AUDIO
    TITLE "Disc1Track63_49"
    INDEX 01 01:12:65
  TRACK 50 AUDIO
    TITLE "Disc1Track63_50"
    INDEX 01 01:15:67
  TRACK 51 AUDIO
    TITLE "Disc1Track63_51"
    INDEX 01 01:16:25
  TRACK 52 AUDIO
    TITLE "Disc1Track63_52"
    INDEX 01 01:17:38
  TRACK 53 AUDIO
    TITLE "Disc1Track63_53"
    INDEX 01 01:18:36
  TRACK 54 AUDIO
    TITLE "Disc1Track63_54"
    INDEX 01 01:19:53
  TRACK 55 AUDIO
    TITLE "Disc1Track63_55"
    INDEX 01 01:20:13
  TRACK 56 AUDIO
    TITLE "Disc1Track63_56"
    INDEX 01 01:21:40
  TRACK 57 AUDIO
    TITLE "Disc1Track63_57"
    INDEX 01 01:25:26
  TRACK 58 AUDIO
    TITLE "Disc1Track63_58"
    INDEX 01 01:26:53
  TRACK 59 AUDIO
    TITLE "Disc1Track63_59"
    INDEX 01 01:30:33
  TRACK 60 AUDIO
    TITLE "Disc1Track63_60"
    INDEX 01 01:30:66
  TRACK 61 AUDIO
    TITLE "Disc1Track63_61"
    INDEX 01 01:32:12
  TRACK 62 AUDIO
    TITLE "Disc1Track63_62"
    INDEX 01 01:35:62
  TRACK 63 AUDIO
    TITLE "Disc1Track63_63"
    INDEX 01 01:37:08
  TRACK 64 AUDIO
    TITLE "Disc1Track63_64"
    INDEX 01 01:40:67
